# xmcd CD database file
#
# Track frame offsets:
#	150
#	11790
#	23774
#	37019
#	53509
#	71178
#	84806
#	98080
#	114168
#	123228
#	136619
#	148129
#	162277
#	176162
#	189548
#	204770
#
# Disc length: 2896 seconds
#
# Revision: 0
# Processed by: cddbd v1.5.2PL0 Copyright (c) Steve Scherf et al.
# Submitted via: CDex 1.70beta2
#
DISCID=cd0b4e10
DTITLE=Various Artist - TEX MEX LOVESONGS [CD 2)
DYEAR=2004
DGENRE=TexMex
TTITLE0=TRIO LOS DUQUES/CIELIYO LINDO
TTITLE1=Freddy Fender and Valerio Longoria Y Su Conjunto/RESPECTA TU AMOR
TTITLE2=ALBERTO ZAMORA Y TALENTO/A MEDIAS DE LA NOCHE
TTITLE3=RUBEN NARANJOY Y  LOS GAMBLERS/DULCE ADORADA
TTITLE4=TRIO LOS DUQUES/LA MALAGUENA SALEROSA
TTITLE5=LOS COMPEONES DE RAUL RUIZ/LA CALANDRIA
TTITLE6=DUETO ROMANTICO/CANSADO DE TI
TTITLE7=LOS TRONTERIZOS DE CD ACUNA/LA CARGA LADIADA
TTITLE8=TONY DE LA ROSA/MEJOR SOLO
TTITLE9=LOS TAHURES DE NORTE/NEGRO DESTINO
TTITLE10=TRIO LOS DUQUES/EL RELOJ
TTITLE11=RUBEN VELA/OJITOS VERDES
TTITLE12=MENGO SALDIVAR/RUEDO DE FUEGO
TTITLE13=TRIO LOS DUQUES/CONTIGO APRENDI
TTITLE14=LINDA ESCOBAR Y LOS RANCHEROS DE N.I/SIN PROBLEMAS
TTITLE15=LOS TRES AQUES/BERINQUEN
EXTD=YEAR: 2004
EXTT0=
EXTT1=
EXTT2=
EXTT3=
EXTT4=
EXTT5=
EXTT6=
EXTT7=
EXTT8=
EXTT9=
EXTT10=
EXTT11=
EXTT12=
EXTT13=
EXTT14=
EXTT15=
PLAYORDER=
